<?xml version="1.0" encoding="utf-8"?>
<!-- Generator: Adobe Illustrator 18.1.1, SVG Export Plug-In . SVG Version: 6.00 Build 0)  -->
<svg version="1.1" id="Ebene_1" xmlns="http://www.w3.org/2000/svg" xmlns:xlink="http://www.w3.org/1999/xlink" x="0px" y="0px"
	 viewBox="0 329.2 1000 270.8" enable-background="new 0 329.2 1000 270.8" xml:space="preserve">
<g>
	<path fill="#000E17" d="M324.2,373.1c-1.2-3.5-2.1-6.5-2.9-10l0,0c-0.8,3.3-1.7,6.9-2.9,10.4l-5.6,16h17.5L324.2,373.1L324.2,373.1
		z M337.7,412.1l-4.4-12.9h-23.7l-4.4,12.9h-12.3l21.9-62.7h13.8l22.5,62.7H337.7L337.7,412.1z"/>
	<polygon fill="#000E17" points="383.8,412.1 369.4,389.2 369.4,412.1 357.5,412.1 357.5,344 369.4,344 369.4,385 382.9,365.8 
		397.5,365.8 381.3,386.9 398.8,412.1 	"/>
	<path fill="#000E17" d="M421.9,412.9c-10.2,0-13.3-3.8-13.3-14.6V375h-7.9v-9.2h7.9v-14.2l11.9-3.1V366h11.2v9h-11.2v20.2
		c0,6,1.5,7.7,5.4,7.7c1.9,0,4.2-0.2,5.8-0.8v9.6C428.5,412.5,425,412.9,421.9,412.9"/>
	<path fill="#000E17" d="M441,365.8h11.9V412H441V365.8L441,365.8z M447.1,359.8c-4.2,0-7.3-3.3-7.3-7.3s3.3-7.1,7.3-7.1
		c4.2,0,7.5,3.1,7.5,7.1S451.3,359.8,447.1,359.8"/>
	<path fill="#000E17" d="M485.4,374.8c-5.2,0-10.4,4.2-10.4,13.5c0,9.6,3.5,14.4,10.4,14.4c5.8,0,10.4-4.8,10.4-14.2
		C495.4,379.8,492.3,374.8,485.4,374.8 M484.2,412.9c-13.1,0-21.7-6.9-21.7-23.3c0-14.4,9.6-24.8,23.5-24.8
		c13.1,0,21.7,7.3,21.7,23.1C507.7,402.5,497.9,412.9,484.2,412.9"/>
	<path fill="#000E17" d="M545.6,412.1v-29.6c0-4.8-1.2-7.7-5.6-7.7c-6,0-10.8,6.9-10.8,15v22.3h-11.9v-46.2h11.2
		c0,2.1-0.2,5.8-0.6,8.1l0,0c2.7-5.4,8.1-9.4,15.6-9.4c10.4,0,13.8,6.7,13.8,14.8v32.5h-11.7V412.1z"/>
	<path fill="#000E17" d="M318.8,445.2c-2.7,0-5.4,0-7.3,0.2v42.3c1.7,0.2,4.2,0.4,6.7,0.4c11.9,0,20.4-6.7,20.4-21.7
		C338.5,453.1,333.1,445.2,318.8,445.2 M316.9,498.6c-6.5,0-12.3-0.2-17.5-0.4v-62.7c5-0.2,12.5-0.4,20.2-0.4
		c19.4,0,31.9,8.8,31.9,30.6C351.5,487.3,337.3,498.6,316.9,498.6"/>
	<path fill="#000E17" d="M379.4,459.6c-5,0-8.3,3.5-9,9.2h17.1C387.7,463.1,384.4,459.6,379.4,459.6 M399,477.1h-28.8
		c0,8.8,4.2,12.9,12.7,12.9c4.6,0,9.6-1,13.5-2.9l1,9.2c-5,1.9-10.8,2.9-16.7,2.9c-14.8,0-22.9-7.3-22.9-23.5
		c0-14.2,7.9-24.6,21.7-24.6c13.5,0,19.4,9.2,19.4,20.6C399.2,473.1,399.2,475,399,477.1"/>
	<path fill="#000E17" d="M438.3,498.1c0-2.1,0-5.8,0.6-8.1l0,0c-2.7,5.4-8.1,9.4-15.6,9.4c-10.4,0-13.8-6.7-13.8-14.8v-32.7h11.9
		v29.6c0,4.8,1.3,7.7,5.8,7.7c6,0,10.6-6.9,10.6-15v-22.3h11.9v46.3L438.3,498.1L438.3,498.1z"/>
	<path fill="#000E17" d="M477.7,499.2c-10.2,0-13.3-3.8-13.3-14.6v-23.3h-7.9v-9.2h7.9v-14.2l11.9-3.1v17.5h11.2v9.2h-11.2v20.2
		c0,6,1.5,7.7,5.4,7.7c1.9,0,4.2-0.2,5.8-0.8v9.4C484.6,498.8,481,499.2,477.7,499.2"/>
	<path fill="#000E17" d="M505.2,499.2c-3.3,0-6.7-0.4-9.6-0.8l0.2-9.8c2.9,0.8,6.5,1.5,10,1.5c4.6,0,7.5-1.9,7.5-5
		c0-8.1-18.8-3.5-18.8-19.2c0-8.1,6.7-14.8,19.6-14.8c2.7,0,5.6,0.4,8.5,0.8l-0.4,9.4c-2.7-0.8-5.6-1.2-8.5-1.2
		c-4.6,0-6.9,1.9-6.9,4.8c0,7.5,19,4.2,19,19.2C525.8,492.9,517.7,499.2,505.2,499.2"/>
	<path fill="#000E17" d="M553.5,499c-12.9,0-20.8-6.7-20.8-22.5c0-14.4,7.5-25.4,24-25.4c3.1,0,6.5,0.4,9.6,1.2l-1.2,10.4
		c-2.5-0.8-5.4-1.7-8.3-1.7c-7.5,0-11.2,5.6-11.2,14.4c0,7.9,3.1,13.3,11,13.3c3.1,0,6.7-0.6,9.2-1.9l0.8,10.2
		C563.1,498.1,558.5,499,553.5,499"/>
	<path fill="#000E17" d="M604,498.1v-29.5c0-4.8-1.2-7.7-5.6-7.7c-6,0-10.8,6.9-10.8,15v22.3h-11.9v-67.9h11.9v19.8
		c0,2.7-0.2,6.7-0.8,9.4h0.2c2.7-5.2,7.9-8.8,15.2-8.8c10.4,0,13.8,6.7,13.8,14.8V498h-12L604,498.1L604,498.1z"/>
	<polygon fill="#000E17" points="628.5,430.2 640.6,430.2 640.6,498.1 628.5,498.1 	"/>
	<path fill="#000E17" d="M677.3,477.7c-12.5,0-15.4,3.5-15.4,7.3c0,2.9,2.1,5,5.4,5c5.8,0,9.8-5.6,9.8-11.2v-1L677.3,477.7
		L677.3,477.7z M678.1,498.1c0-2.7,0-5.4,0.4-7.9l0,0c-2.3,5.2-7.9,8.8-14.8,8.8c-8.3,0-13.1-4.8-13.1-12.3c0-11,11-16.9,26.7-16.9
		v-2.5c0-4.8-2.3-7.3-9-7.3c-4.2,0-9.8,1.5-13.8,3.5l-1-10c4.6-1.7,10.6-2.9,16.5-2.9c14.8,0,19.2,6,19.2,16v19.2
		c0,3.8,0,8.1,0.2,11.9h-11.3L678.1,498.1L678.1,498.1z"/>
	<path fill="#000E17" d="M730.6,498.1v-29.5c0-4.8-1.2-7.7-5.6-7.7c-6,0-10.8,6.9-10.8,15v22.3h-12.1V452h11.2
		c0,2.1-0.2,5.8-0.6,8.1l0,0c2.7-5.4,8.1-9.4,15.6-9.4c10.4,0,13.8,6.7,13.8,14.8V498h-11.5L730.6,498.1L730.6,498.1z"/>
	<path fill="#000E17" d="M782.5,461.3c-2.1-0.4-4.2-0.8-6.2-0.8c-6.9,0-11.7,4.4-11.7,15.6c0,8.8,2.5,13.1,7.9,13.1
		c6.2,0,10-7.3,10-15.2V461.3L782.5,461.3z M783.1,498.1c0-2.3,0.2-5.2,0.6-7.7h-0.2c-2.5,5.2-7.5,8.7-14.6,8.7
		c-11.2,0-16.9-8.5-16.9-21.7c0-15.6,9.2-26.5,24.4-26.5c1.9,0,3.7,0,5.8,0.4v-21.2h11.9V498h-11V498.1z"/>
	<polygon fill="#000E17" points="866.2,498.1 866.2,471.1 839.6,471.1 839.6,498.1 827.5,498.1 827.5,435.4 839.6,435.4 
		839.6,460.4 866.2,460.4 866.2,435.4 878.3,435.4 878.3,498.1 	"/>
	<path fill="#000E17" d="M891.5,451.9h11.9v46.3h-11.9V451.9L891.5,451.9z M897.3,446.1c-4.2,0-7.3-3.3-7.3-7.3s3.3-7.1,7.3-7.1
		c4.2,0,7.5,3.1,7.5,7.1C904.8,442.7,901.5,446.1,897.3,446.1"/>
	<polygon fill="#000E17" points="916.2,430.2 928.1,430.2 928.1,498.1 916.2,498.1 	"/>
	<path fill="#000E17" d="M968.5,440c-1.9-0.6-4-0.8-5.8-0.8c-5.2,0-7.5,2.7-7.5,8.8v4H966v9.2h-10.8v37.1h-11.9v-36.9h-8.1v-9.2h8.1
		v-3.8c0-12.5,5.8-18.8,18.3-18.8c2.5,0,5.2,0.2,7.5,0.8L968.5,440L968.5,440z"/>
	<g>
		<g>
			<g>
				<g>
					<defs>
						<rect id="SVGID_1_" y="329.2" width="996.7" height="270.8"/>
					</defs>
					<clipPath id="SVGID_2_">
						<use xlink:href="#SVGID_1_"  overflow="visible"/>
					</clipPath>
					<path clip-path="url(#SVGID_2_)" fill="#000E17" d="M987.1,499.2c-10.2,0-13.3-3.8-13.3-14.6v-23.3h-7.9v-9.2h7.9v-14.2
						l11.9-3.1v17.5h11.2v9.2h-11.5v20.2c0,6,1.5,7.7,5.4,7.7c1.9,0,4.2-0.2,5.8-0.8v9.4C993.8,498.8,990.2,499.2,987.1,499.2"/>
				</g>
			</g>
		</g>
		<g>
			<g>
				<g>
					<defs>
						<rect id="SVGID_3_" y="329.2" width="996.7" height="270.8"/>
					</defs>
					<clipPath id="SVGID_4_">
						<use xlink:href="#SVGID_3_"  overflow="visible"/>
					</clipPath>
					<path clip-path="url(#SVGID_4_)" fill="#000E17" d="M85.8,382.3c-36.5,24-63.3,66-45.8,107.9c9.4,20.2,26.9,36.5,48.5,44.6
						C48.1,540.2,17,502.5,13.1,466c-4-39.2,8.1-78.1,37.7-105.2c28.3-25.8,66-34,102.5-31.3c21.7,2.7,41.9,6.9,62.1,16.2
						c5.4,2.7,13.5,6.7,10.8,13.5c-4,9.4-17.5,8.1-26.9,8.1C161.5,367.5,121,359.4,85.8,382.3"/>
				</g>
			</g>
		</g>
	</g>
	<path fill="#2289CA" d="M161.5,453.8c-2.5,12.3-9.4,21.7-17.5,31c-10.8,9.4-24.4,9.4-37.7,12.1c-6.7,0-13.5-1.2-20.2-5.4
		c-13.6-10.9-12.1-26.9-13.6-41.9c-1.2-6.7,2.7-12.1,9.4-16.2c10.8-5.4,20.2-10.8,31-14.8c16.2-6.7,39.2,1.2,49.8,16.2
		C166.9,440.2,162.7,446.9,161.5,453.8"/>
	<g>
		<g>
			<g>
				<g>
					<defs>
						<rect id="SVGID_5_" y="329.2" width="996.7" height="270.8"/>
					</defs>
					<clipPath id="SVGID_6_">
						<use xlink:href="#SVGID_5_"  overflow="visible"/>
					</clipPath>
					<path clip-path="url(#SVGID_6_)" fill="#E3000B" d="M255.8,482.1c-9,28.5-33.7,44.6-59.4,55.2c-28.3,12.1-59.4,20.2-89,12.1
						c-4-1.2-8.1-2.7-9.4-6.7c-2.7-8.1-1.2-21.7,8.1-21.7c41.9-4,93.1-20.2,102.5-66c5.4-24.2-10.8-45.8-31-55.2
						c-24.2-10.8-51.2-10.8-76.9-2.7c26.9-21.7,64.6-24.4,97.1-10.8C235.6,401.1,269.4,439,255.8,482.1"/>
				</g>
			</g>
		</g>
		<g>
			<g>
				<g>
					<defs>
						<rect id="SVGID_7_" y="329.2" width="996.7" height="270.8"/>
					</defs>
					<clipPath id="SVGID_8_">
						<use xlink:href="#SVGID_7_"  overflow="visible"/>
					</clipPath>
					<path clip-path="url(#SVGID_8_)" fill="#FFDE0C" d="M254.4,566.9c-52.7,31.7-117.3,39.2-179.4,25.6
						c-24.2-6.7-47.3-17.5-62.1-39.2C-3.3,527.7-1.9,498.1,3.5,471c0,25.6,6.7,49.8,20.2,72.7c14.8,21.7,36.5,32.3,60.6,35
						c57.9,4,111.9-21.7,161.9-47.3c12.1-6.7,25.6,6.7,21.7,19C265.2,557.5,261.3,562.9,254.4,566.9"/>
				</g>
			</g>
		</g>
	</g>
	<path fill="#000E17" d="M721.7,600"/>
	<path fill="#000E17" d="M305,547.9c-0.6,0-2.1,0-2.9,0v11.5c0.8,0.2,2.1,0.2,4.2,0.2c5.4,0,7.7-2.7,7.7-6.2
		C314,549,310,547.9,305,547.9L305,547.9z M306.5,535c-1.5,0-3.1,0-4.4,0v10.6c0.8,0,1.7,0,2.9,0c5.4,0,8.1-2.1,8.1-5.6
		C313.1,537.3,311.9,535,306.5,535L306.5,535z M306,561.7c-1.7,0-4.4,0-6.5-0.2v-28.3c1.9,0,4.2,0,7.5,0c6.2,0,9,2.7,9,6.7
		c0,3.1-2.3,5.8-5.6,6.9l0,0c4.6,0.6,6.2,3.5,6.2,6.7C316.7,556.1,315,561.7,306,561.7L306,561.7z"/>
	<path fill="#000E17" d="M335,535.6c-1,0-1.9-0.8-1.9-1.9c0-1.1,0.8-1.9,1.9-1.9c1,0,1.9,0.8,1.9,1.9
		C336.7,534.8,335.8,535.6,335,535.6L335,535.6z M327.1,535.6c-1,0-1.9-0.8-1.9-1.9c0-1.1,0.8-1.9,1.9-1.9c1,0,1.9,0.8,1.9,1.9
		C329,534.8,328.1,535.6,327.1,535.6L327.1,535.6z M336.7,561.7c0-1.5,0.2-3.5,0.4-4.8l0,0c-1.2,3.1-4,5.2-7.7,5.2
		c-4.8,0-6.2-2.9-6.2-6.7v-14.6h2.7v13.8c0,3.5,0.8,5.6,4.2,5.6c4,0,6.7-4,6.7-9.2v-10h2.7v21h-2.7v-0.3H336.7z"/>
	<path fill="#000E17" d="M361,561.7v-13.8c0-3.5-1-5.6-4.2-5.6c-4,0-6.7,4-6.7,9.2v10h-2.7v-21h2.7c0,1.5-0.2,3.5-0.4,4.8l0,0
		c1.2-3.1,4-5.2,7.7-5.2c4.8,0,6.2,2.9,6.2,6.7v14.6H361V561.7z"/>
	<path fill="#000E17" d="M384.2,542.9c-1.5-0.4-2.9-0.6-4.4-0.6c-4.6,0-7.7,2.7-7.7,9.4c0,5,1.7,7.9,5.4,7.9c4.6,0,6.7-5.2,6.7-9
		V542.9L384.2,542.9z M384.2,561.7c0-1.5,0.2-3.5,0.4-4.8l0,0c-1,3.1-4,5.2-7.3,5.2c-5.2,0-7.7-3.8-7.7-9.8
		c0-7.7,4.2-11.7,10.6-11.7c1.3,0,2.7,0,4.2,0.2V531h2.7v30.8h-2.9L384.2,561.7L384.2,561.7z"/>
	<path fill="#000E17" d="M408.5,561.7v-13.8c0-3.5-1-5.6-4.4-5.6c-4,0-6.7,4-6.7,9.2v10h-2.7v-21h2.7c0,1.5-0.2,3.5-0.4,4.8l0,0
		c1.2-3.1,4-5.2,7.7-5.2c4.8,0,6.2,2.9,6.2,6.7v14.6h-2.5L408.5,561.7L408.5,561.7z"/>
	<path fill="#000E17" d="M419.2,561.7v-21h2.7v21H419.2L419.2,561.7z M420.4,536.5c-1,0-1.9-0.8-1.9-1.9c0-1,0.8-1.9,1.9-1.9
		s1.9,0.8,1.9,1.9C422.3,535.6,421.5,536.5,420.4,536.5L420.4,536.5z"/>
	<path fill="#000E17" d="M432.7,561.9c-1.7,0-3.1-0.2-4.6-0.4V559c1.5,0.4,3.1,0.6,4.8,0.6c3.3,0,5.6-1.5,5.6-3.8
		c0-5.4-10.6-2.1-10.6-9.6c0-3.3,2.9-6,8.1-6c1.2,0,2.9,0.2,4.2,0.4l-0.2,2.3c-1.5-0.4-2.9-0.6-4.4-0.6c-3.3,0-5,1.5-5,3.5
		c0,5.4,10.6,2.3,10.6,9.4C441.5,559,438.1,561.9,432.7,561.9L432.7,561.9z"/>
	<path fill="#000E17" d="M469.4,542.9c-1.5-0.4-2.9-0.6-4.4-0.6c-4.6,0-7.7,2.7-7.7,9.4c0,5,1.7,7.9,5.4,7.9c4.6,0,6.7-5.2,6.7-9
		V542.9L469.4,542.9z M469.4,561.7c0-1.5,0.2-3.5,0.4-4.8l0,0c-1,3.1-4,5.2-7.3,5.2c-5.2,0-7.7-3.8-7.7-9.8
		c0-7.7,4.2-11.7,10.6-11.7c1.3,0,2.7,0,4.2,0.2V531h2.7v30.8h-2.9L469.4,561.7L469.4,561.7z"/>
	<path fill="#000E17" d="M486.9,542.3c-3.1,0-5.4,2.3-5.8,5.8h11.2C492.3,544.6,490.2,542.3,486.9,542.3L486.9,542.3z M495,550
		h-14.2c-0.2,6.9,2.3,9.6,7.3,9.6c2.3,0,4.6-0.6,6-1.5l0.2,2.3c-1.9,0.8-4.2,1.2-6.9,1.2c-6.2,0-9.6-3.3-9.6-10.8
		c0-6.2,3.3-10.8,9.2-10.8c5.6,0,8.1,4,8.1,8.5C495,549,495,549.4,495,550L495,550z"/>
	<path fill="#000E17" d="M514.8,561.7c0-1.5,0.2-3.5,0.4-4.8l0,0c-1.3,3.1-4,5.2-7.7,5.2c-4.8,0-6.2-2.9-6.2-6.7v-14.6h2.7v13.8
		c0,3.5,0.8,5.6,4.2,5.6c4,0,6.7-4,6.7-9.2v-10h2.7v21h-2.7v-0.3H514.8z"/>
	<path fill="#000E17" d="M531.5,561.9c-4.2,0-5.2-1.9-5.2-6v-13.1h-4.8v-2.2h4.8v-7l2.7-0.6v7.9h6.5v2.1H529v11.9c0,4,0.6,5,3.3,5
		c1,0,2.3-0.2,3.1-0.4v2.3C534.2,561.7,532.7,561.9,531.5,561.9L531.5,561.9z"/>
	<path fill="#000E17" d="M543.8,561.9c-1.7,0-3.1-0.2-4.6-0.4V559c1.3,0.4,3.1,0.6,4.8,0.6c3.3,0,5.6-1.5,5.6-3.8
		c0-5.4-10.6-2.1-10.6-9.6c0-3.3,2.9-6,8.1-6c1.2,0,2.9,0.2,4.2,0.4l-0.2,2.3c-1.5-0.4-2.9-0.6-4.4-0.6c-3.3,0-5,1.5-5,3.5
		c0,5.4,10.6,2.3,10.6,9.4C552.5,559,549.2,561.9,543.8,561.9L543.8,561.9z"/>
	<path fill="#000E17" d="M565.6,561.9c-4.4,0-9-1.9-9-10c0-6.9,3.5-11.5,10.2-11.5c1.7,0,3.5,0.2,5,0.6l-0.2,2.3c-1.5-0.6-3.1-1-5-1
		c-4.8,0-7.1,3.5-7.1,9c0,4.6,1.2,8.3,6.7,8.3c2.1,0,4.2-0.4,5.6-1.2l0.2,2.3C570.6,561.1,568.3,561.9,565.6,561.9L565.6,561.9z"/>
	<path fill="#000E17" d="M591,561.7v-13.8c0-3.5-1-5.6-4.4-5.6c-4,0-6.7,4-6.7,9.2v10h-2.7v-30.9h2.7v10.6c0,1.5,0,3.1-0.4,4.2l0,0
		c1.2-3.3,4-5.4,7.7-5.4c4.8,0,6.2,2.9,6.2,6.7v14.6H591V561.7z"/>
	<path fill="#000E17" d="M608.3,542.3c-3.1,0-5.4,2.3-5.8,5.8h11.2C613.8,544.6,611.7,542.3,608.3,542.3L608.3,542.3z M616.5,550
		h-14.2c-0.2,6.9,2.3,9.6,7.3,9.6c2.3,0,4.6-0.6,6-1.5l0.2,2.3c-1.9,0.8-4.2,1.2-6.9,1.2c-6.2,0-9.6-3.3-9.6-10.8
		c0-6.2,3.3-10.8,9.2-10.8s8.1,4,8.1,8.5C616.7,549,616.7,549.4,616.5,550L616.5,550z"/>
	<path fill="#000E17" d="M632.3,542.7c-4.8-0.8-7.1,3.1-7.1,10.4v8.3h-2.7v-21h2.7c0,1.5-0.2,3.5-0.6,5.4l0,0
		c0.8-3.1,2.9-6.5,7.7-5.8L632.3,542.7L632.3,542.7z"/>
	<polygon fill="#000E17" points="665.4,561.7 665.4,547.9 649,547.9 649,561.7 646.3,561.7 646.3,533.1 649,533.1 649,545.6 
		665.4,545.6 665.4,533.1 668.1,533.1 668.1,561.7 	"/>
	<path fill="#000E17" d="M676,561.7v-21h2.7v21H676L676,561.7z M677.3,536.5c-1,0-1.9-0.8-1.9-1.9c0-1,0.8-1.9,1.9-1.9
		s1.9,0.8,1.9,1.9C679.2,535.6,678.3,536.5,677.3,536.5L677.3,536.5z"/>
	<polygon fill="#000E17" points="686.5,561.7 686.5,530.6 689.2,530.6 689.2,561.7 	"/>
	<path fill="#000E17" d="M709.2,533.1c-1-0.4-2.3-0.4-3.3-0.4c-3.5,0-5,2.1-5,6.2v1.5h6.5v2.1h-6.5v19h-2.7v-19h-4.8v-2.1h4.8v-1.5
		c0-5.8,2.9-8.5,7.9-8.5c1.2,0,2.3,0.2,3.5,0.4L709.2,533.1L709.2,533.1z"/>
	<path fill="#000E17" d="M713.8,561.9c-1.7,0-3.1-0.2-4.6-0.4V559c1.2,0.4,3.1,0.6,4.8,0.6c3.3,0,5.6-1.5,5.6-3.8
		c0-5.4-10.6-2.1-10.6-9.6c0-3.3,2.9-6,8.1-6c1.2,0,2.9,0.2,4.2,0.4l-0.2,2.3c-1.5-0.4-2.9-0.6-4.4-0.6c-3.3,0-5,1.5-5,3.5
		c0,5.4,10.6,2.3,10.6,9.4C722.5,559,719.2,561.9,713.8,561.9L713.8,561.9z"/>
	<path fill="#000E17" d="M736,542.3c-3.5,0-6.7,2.7-6.7,8.5c0,5.6,2.5,8.8,6.9,8.8c3.5,0,6.7-2.7,6.7-8.8
		C742.7,545.6,740.4,542.3,736,542.3L736,542.3z M735.6,561.9c-5.6,0-9.2-3.3-9.2-10.8c0-5.8,3.5-10.8,9.8-10.8
		c5,0,9.2,2.7,9.2,10.6C745.6,556.9,741.9,561.9,735.6,561.9L735.6,561.9z"/>
	<path fill="#000E17" d="M761,542.7c-4.8-0.8-7.1,3.1-7.1,10.4v8.3h-2.7v-21h2.7c0,1.5-0.2,3.5-0.6,5.4l0,0c0.8-3.1,2.9-6.5,7.7-5.8
		L761,542.7L761,542.7z"/>
	<path fill="#000E17" d="M773.1,542.3c-4,0-6.2,2.5-6.2,5.6c0,3.5,2.3,5.6,6,5.6s6-2.1,6-5.6C779,544.4,776.7,542.3,773.1,542.3
		L773.1,542.3z M775.2,561.7h-5.8c-1.9,1-3.3,2.7-3.3,4.6c0,2.9,2.9,4.4,6.5,4.4c4.8,0,7.7-2.1,7.7-5
		C780.2,562.9,778.5,561.7,775.2,561.7L775.2,561.7z M772.1,572.7c-5.2,0-8.8-2.3-8.8-6.2c0-2.7,1.7-4.6,3.8-5.6
		c-1.2-0.6-2.1-1.7-2.1-3.1c0-1.4,0.8-2.7,2.3-3.3c-2.1-1.2-3.1-3.3-3.1-6.2c0-4.4,3.3-8.1,9-8.1c1,0,1.9,0.2,3.1,0.4h7.1v2.1h-4
		c1.2,1,2.3,2.9,2.3,5c0,4.4-3.1,7.9-9.2,7.9c-1,0-2.3-0.2-3.1-0.4c-1,0.4-1.7,1.2-1.7,2.1c0,1.2,1.3,1.9,4,1.9h4.4
		c4.6,0,7.1,2.3,7.1,5.8C782.9,569.4,778.3,572.7,772.1,572.7L772.1,572.7z"/>
	<path fill="#000E17" d="M800,551.7c-8.3,0-10.2,2.7-10.2,4.8s1.5,3.3,3.5,3.3c4,0,6.7-4,6.7-7.9V551.7L800,551.7z M800,561.7
		c0-1.7,0-3.3,0.2-4.6l0,0c-1,2.7-3.8,5-7.5,5c-3.3,0-5.6-1.7-5.6-5c0-4.4,4.6-7.3,12.9-7.3v-1.9c0-3.3-1.2-5.4-5-5.4
		c-2.1,0-4.6,0.6-6.5,1.9l-0.2-2.5c2.1-0.8,4.4-1.7,7.3-1.7c5.6,0,7.1,2.9,7.1,6.7v8.1c0,2.1,0,4.6,0,6.5H800V561.7z"/>
	<path fill="#000E17" d="M824.4,561.7v-13.8c0-3.5-1-5.6-4.2-5.6c-4,0-6.7,4-6.7,9.2v10h-2.7v-21h2.7c0,1.5-0.2,3.5-0.4,4.8l0,0
		c1.2-3.1,4-5.2,7.7-5.2c4.8,0,6.2,2.9,6.2,6.7v14.6h-2.7v0.3H824.4z"/>
	<path fill="#000E17" d="M834.2,561.7v-21h2.7v21H834.2L834.2,561.7z M835.6,536.5c-1,0-1.9-0.8-1.9-1.9c0-1,0.8-1.9,1.9-1.9
		c1,0,1.9,0.8,1.9,1.9C837.5,535.6,836.7,536.5,835.6,536.5L835.6,536.5z"/>
	<path fill="#000E17" d="M847.9,561.9c-1.7,0-3.1-0.2-4.6-0.4V559c1.5,0.4,3.1,0.6,4.8,0.6c3.3,0,5.6-1.5,5.6-3.8
		c0-5.4-10.6-2.1-10.6-9.6c0-3.3,2.9-6,8.1-6c1.2,0,2.9,0.2,4.2,0.4l-0.2,2.3c-1.5-0.4-2.9-0.6-4.4-0.6c-3.3,0-5,1.5-5,3.5
		c0,5.4,10.6,2.3,10.6,9.4C856.5,559,853.3,561.9,847.9,561.9L847.9,561.9z"/>
	<path fill="#000E17" d="M874,551.7c-8.3,0-10.2,2.7-10.2,4.8s1.5,3.3,3.5,3.3c4,0,6.7-4,6.7-7.9V551.7L874,551.7z M874,561.7
		c0-1.7,0-3.3,0.2-4.6l0,0c-1,2.7-3.8,5-7.5,5c-3.3,0-5.6-1.7-5.6-5c0-4.4,4.6-7.3,12.9-7.3v-1.9c0-3.3-1.2-5.4-5-5.4
		c-2.1,0-4.6,0.6-6.5,1.9l-0.2-2.5c2.1-0.8,4.4-1.7,7.3-1.7c5.6,0,7.1,2.9,7.1,6.7v8.1c0,2.1,0,4.6,0,6.5H874V561.7z"/>
	<path fill="#000E17" d="M890,561.9c-4.2,0-5.2-1.9-5.2-6v-13.1H880v-2.2h4.8v-7l2.7-0.6v7.9h6.5v2.1h-6.5v11.9c0,4,0.6,5,3.3,5
		c1,0,2.3-0.2,3.1-0.4v2.3C892.7,561.7,891.2,561.9,890,561.9L890,561.9z"/>
	<path fill="#000E17" d="M899.4,561.7v-21h2.7v21H899.4L899.4,561.7z M900.6,536.5c-1,0-1.9-0.8-1.9-1.9c0-1,0.8-1.9,1.9-1.9
		c1,0,1.9,0.8,1.9,1.9C902.7,535.6,901.9,536.5,900.6,536.5L900.6,536.5z"/>
	<path fill="#000E17" d="M917.3,542.3c-3.5,0-6.7,2.7-6.7,8.5c0,5.6,2.5,8.8,6.9,8.8c3.5,0,6.7-2.7,6.7-8.8
		C924,545.6,921.7,542.3,917.3,542.3L917.3,542.3z M916.9,561.9c-5.6,0-9.2-3.3-9.2-10.8c0-5.8,3.5-10.8,9.8-10.8
		c5,0,9.2,2.7,9.2,10.6C926.7,556.9,923.1,561.9,916.9,561.9L916.9,561.9z"/>
	<path fill="#000E17" d="M946.2,561.7v-13.8c0-3.5-1-5.6-4.2-5.6c-4,0-6.7,4-6.7,9.2v10h-2.7v-21h2.7c0,1.5-0.2,3.5-0.4,4.8l0,0
		c1.3-3.1,4-5.2,7.7-5.2c4.8,0,6.2,2.9,6.2,6.7v14.6h-2.7v0.3H946.2z"/>
	<path fill="#000E17" d="M963.5,542.3c-3.1,0-5.4,2.3-5.8,5.8H969C969.2,544.6,967.1,542.3,963.5,542.3L963.5,542.3z M971.9,550
		h-14.2c-0.2,6.9,2.3,9.6,7.3,9.6c2.3,0,4.6-0.6,6-1.5l0.2,2.3c-1.9,0.8-4.2,1.2-6.9,1.2c-6.2,0-9.6-3.3-9.6-10.8
		c0-6.2,3.3-10.8,9.2-10.8c5.6,0,8.1,4,8.1,8.5C971.9,549,971.9,549.4,971.9,550L971.9,550z"/>
	<path fill="#000E17" d="M991.7,561.7v-13.8c0-3.5-1-5.6-4.2-5.6c-4,0-6.7,4-6.7,9.2v10h-2.7v-21h2.7c0,1.5-0.2,3.5-0.4,4.8l0,0
		c1.2-3.1,4-5.2,7.7-5.2c4.8,0,6.2,2.9,6.2,6.7v14.6h-2.7v0.3H991.7z"/>
</g>
</svg>
