<svg xmlns="http://www.w3.org/2000/svg" xmlns:xlink="http://www.w3.org/1999/xlink" width="260" height="68" viewBox="0 0 260 68">
    <defs>
        <path id="a" d="M.014.102v46.893h35.39V.102H.013z"/>
    </defs>
    <g fill="none" fill-rule="evenodd">
        <g transform="translate(0 20.588)">
            <mask id="b" fill="#fff">
                <use xlink:href="#a"/>
            </mask>
            <path fill="#E40028" d="M11.638.102C8.306.102 4.875.43 0 .43v34.11s5.34.333 9.334-2.67V8.704h3.574c6.243 0 12.721 2.805 12.721 14.816 0 10.792-4.924 14.94-14.646 14.94H0v8.438c4.875 0 8.306.097 11.638.097 18.092 0 23.765-10.239 23.765-23.488C35.403 10.26 29.73.102 11.638.102" mask="url(#b)"/>
        </g>
        <path fill="#E40028" d="M107.638 58.399s-4.896-6.26-7.38-10.899c6.277-3.031 7.852-7.972 7.852-12.487 0-14.148-12.765-14.428-19.21-14.425-3.914.002-8.226.35-12.066.324v8.482h13.49c5.443 0 8.31 2.213 8.31 6.514 0 4.681-2.832 6.73-7.472 6.73h-5.01V33.27s-6.174-.24-9.318 4.037v29.571h9.318v-17.28c5.605-1.12 7.265 4.488 9.692 8.506 3.358 5.556 5.385 9.543 12.14 9.543 1.225 0 2.607-.137 4.18-.42l.132-7.293c-1.659.282-3.016.476-4.658-1.535M42.759 13.758c0-9.12 2.57-5.756 13.39-5.756 10.818 0 13.388-3.363 13.388 5.756v.948h7.297v-2.419C76.834 3.693 72.594 0 56.148 0 39.702 0 35.462 3.693 35.462 12.287v2.419h7.297v-.948M38.417 67.647h32.507V58.94H49.015V47.064h18.94v-7.918h-18.94V29.25h21.909v-8.66H38.417v47.058"/>
        <path fill="#E40028" d="M124.575 23.91v43.737h-3.799V23.91h-14.39v-3.322h32.507v3.322h-14.318M142.407 43.782c0 10.42 2.044 20.84 14.249 20.84 12.203 0 14.184-10.42 14.184-20.84s-1.98-20.169-14.184-20.169c-12.205 0-14.25 9.748-14.25 20.169zm-3.514 0c0-12.572 3.322-23.194 17.763-23.194 14.44 0 17.699 10.622 17.699 23.194 0 12.84-3.259 23.865-17.7 23.865-14.44 0-17.762-11.025-17.762-23.865zM212.241 50.597V20.588h3.486v30.009c0 11.799-5.228 17.05-16.22 17.05-10.992 0-16.287-5.251-16.287-17.05V20.588h3.553v30.009c0 5.32.469 13.981 13.002 13.981 11.73 0 12.466-8.661 12.466-13.981M231.086 44.464h13.684c6.14 0 10.28-3.807 10.28-10.312 0-5.951-3.605-10.242-9.814-10.242h-14.15v20.554zm24.83 23.183l-12.08-19.862h-12.75v19.862h-3.538V20.588h18.023c8.544 0 13.015 6.16 13.015 13.564 0 6.92-3.937 12.319-11.08 13.08l12.548 20.415h-4.138z"/>
    </g>
</svg>
