<?xml version="1.0" encoding="UTF-8"?><svg xmlns="http://www.w3.org/2000/svg" class="header" enable-background="new 0 0 922 205" height="32px" id="svg78" preserveAspectRatio="xMidYMid meet" version="1.2" viewBox="0 0 922 205" width="144px"><defs id="defs82"/><g class="text" id="g76" transform="translate(-1.9436413e-5,-0.14645957)"><g id="g50"><path d="M 195.58594,133.10156 C 213.51172,80.585938 185.46875,23.484375 132.95312,5.558594 80.4375,-12.363281 23.335938,15.679688 5.414062,68.191406 -12.511719,120.70703 15.53125,177.80859 68.046875,195.73437 120.5625,213.65625 177.66406,185.61328 195.58594,133.10156" id="path48"/></g><style id="style52" type="text/css">
.invert .text {fill: #FFF;} 
.Storefront_2017_B2P_variant_1.header .img, .b2p-yellow-header.header .img, .alt.header .img {fill:#FFF} 
.text{fill:	#202843; fill-rule:evenodd;} 
.img{fill:	#FFC94C;} 
.invert .img {fill:none;}
</style><path class="img" d="M 15.425781,154.10547 C 31.0625,146.64453 84.28125,120.52344 94.769531,114.375 c 8.613279,-5.01953 21.441409,-12.42187 21.441409,-12.42187 l 5.4414,11.08984 8.3086,54.65234 6.34765,-3.66406 4.21875,-76.335938 c 12.82422,-8.015624 24.1211,-15.816406 35.94532,-23.976562 4.33593,-2.992188 8.74218,-6.035156 13.3164,-9.152344 -1.44922,-2.800781 -3.02734,-5.53125 -4.72656,-8.175781 -4.98828,2.402344 -9.82422,4.695313 -14.57813,6.953125 C 157.5,59.503906 145.09766,65.386719 131.74219,72.480469 l -68.214846,-34.507813 -6.347656,3.664063 43.175782,34.519531 6.87109,10.238281 0.0117,0.01953 c 0,0 -12.824218,7.40625 -21.480468,12.359376 -10.566406,6.007813 -59.808593,39.042973 -74.082031,48.847653 1.171875,2.21094 2.421875,4.3711 3.75,6.48438" id="path54"/><path d="M 901.58203,78.285156 V 67.257812 h 19.4375 V 167.73047 h -20 v -11.41016 c -7.13281,8.3125 -17.16797,13.80078 -31.67578,13.80078 -28.5625,0 -46.91797,-22.76562 -46.91797,-52.5664 0,-29.597659 18.35547,-52.570315 46.91797,-52.570315 12.69531,0 24.46484,4.789063 32.23828,13.300781 z m -1.34375,19.71875 c -5.92187,-8.761718 -15.92969,-14.152344 -27.70312,-14.152344 -17.6836,0 -29.86329,14.972657 -29.86329,33.703128 0,18.73047 11.73438,34.14843 29.86329,34.14843 12.11328,0 21.91406,-6.90234 27.70312,-15.84765 V 98.003906" id="path56"/><path d="m 782.17187,41.390625 c 0,-7.722656 6.32422,-13.964844 14.12891,-13.964844 7.55859,0 13.96484,6.40625 13.96484,13.964844 0,7.804687 -6.24218,14.128906 -13.96484,14.128906 -7.80469,0 -14.12891,-6.324219 -14.12891,-14.128906" id="path58"/><path d="m 785.82812,167.73437 h 20.78125 V 67.253906 h -20.78125 z m 0,0" id="path60"/><path d="m 745.21094,30 h 20.33203 v 137.73047 h -20 v -11.41016 c -7.13281,8.3125 -17.16797,13.80078 -31.67578,13.80078 -28.5625,0 -46.91797,-22.76562 -46.91797,-52.5664 0,-29.597659 18.35547,-52.570315 46.91797,-52.570315 12.21875,0 23.57812,4.4375 31.34375,12.355469 z m -0.44922,68.003906 c -5.91797,-8.761718 -15.92969,-14.152344 -27.70313,-14.152344 -17.67968,0 -29.86328,14.972657 -29.86328,33.703128 0,18.73047 11.73438,34.14843 29.86328,34.14843 12.11328,0 21.91407,-6.90234 27.70313,-15.84765 V 98.003906" id="path62"/><path d="m 608.40234,170.28906 c 9.07422,-0.0234 17.3086,-1.72265 24.70703,-5.09375 7.44532,-3.39844 13.97657,-8.29687 19.58985,-14.69531 l -12.41016,-13.22656 -0.0273,0.0312 c -4.1211,4.3789 -8.75781,7.73437 -13.92188,10.44922 -5.12109,2.55468 -10.95312,3.84375 -17.52343,3.84375 -15.51563,0 -29.01954,-11.69141 -30.97266,-27.08203 h 78.12891 c 0.0195,-0.22266 0.0351,-0.44922 0.0508,-0.67188 0.17968,-2.39844 0.26953,-4.78906 0.26953,-7.20703 0,-28.695314 -20.58594,-51.984376 -49.07422,-51.984376 -28.69531,0 -50.32422,22.664062 -50.32422,52.816406 0,30.75391 21.59766,52.78906 51.50781,52.82031 z m -30.0625,-62.9414 h 56.71485 c -2.00391,-13.976566 -13.4961,-24.398441 -28.26563,-24.398441 -7.39453,0 -14.16015,3.203125 -19.27344,7.972656 -4.90625,4.574219 -8.25,10.550785 -9.17578,16.425785" id="path64"/><path d="M 468.69531,157.66016 V 205 H 448.35937 V 67.269531 h 20 v 11.410157 c 7.13672,-8.308594 17.16797,-13.800782 31.67579,-13.800782 28.5625,0 46.92187,22.765625 46.92187,52.566404 0,29.59766 -18.35937,52.57031 -46.92187,52.57031 -12.21485,0 -23.57422,-4.43359 -31.33985,-12.35546 z m 0.44922,-20.66407 c 5.91797,8.76172 15.92969,14.15235 27.70313,14.15235 17.67968,0 29.86328,-14.97266 29.86328,-33.70313 0,-18.72656 -11.73438,-34.148435 -29.86328,-34.148435 -12.11329,0 -21.91407,6.902344 -27.70313,15.851563 v 37.847652" id="path66"/><path d="M 376.25391,116.07813 340.8125,67.261719 h 25.08984 l 23.63672,33.296871 23.64063,-33.296871 h 24.7539 l -35.59375,49.027341 37.24219,51.44531 h -25.11328 l -25.19531,-35.55859 -25.19141,35.55859 h -25.22656 l 37.39844,-51.65624" id="path68"/><path d="m 273.85937,108.78906 h 52.19532 V 89.074219 H 273.85937 V 53.257812 h 56.71094 V 33.542969 H 251.15234 V 167.73437 h 79.83203 v -19.71484 h -57.125 v -39.23047" id="path70"/></g></svg>